<svg width="3401" height="419" viewBox="0 0 3401 419" fill="none" xmlns="http://www.w3.org/2000/svg">
<path d="M288.193 33.4306V27.0178H350.773V33.4306H323.242V105.961H315.724V33.4306H288.193Z" fill="white"/>
<path d="M366.988 105.961V27.0178H403.143C410.145 27.0178 415.784 28.6763 420.059 31.9932C424.777 35.605 427.135 40.8015 427.135 47.5828C427.135 52.7424 425.845 57.0913 423.266 60.6293C420.538 64.3885 416.706 66.7472 411.767 67.7055V67.9266C420.317 69.0322 424.924 74.9658 425.587 85.7274C425.956 92.0664 426.177 95.6045 426.251 96.3416C426.841 101.059 427.836 104.265 429.236 105.961H420.944C419.912 104.339 419.212 100.248 418.843 93.688C418.401 86.2434 417.479 81.0837 416.079 78.2091C413.72 73.3442 409.371 70.9118 403.032 70.9118H374.507V105.961H366.988ZM374.507 33.4306V64.4991H402.59C407.381 64.4991 411.398 63.0986 414.642 60.2977C417.959 57.4967 419.617 53.7744 419.617 49.1307C419.617 44.1921 418.143 40.3592 415.194 37.632C412.32 34.831 408.118 33.4306 402.59 33.4306H374.507Z" fill="white"/>
<path d="M448.805 77.5457V27.0178H456.323V75.8872C456.323 92.7667 464.026 101.206 479.431 101.206C494.91 101.206 502.65 92.7667 502.65 75.8872V27.0178H510.168V77.5457C510.168 86.3908 507.81 93.4301 503.092 98.6634C497.711 104.634 489.824 107.619 479.431 107.619C469.112 107.619 461.262 104.634 455.881 98.6634C451.164 93.3564 448.805 86.3171 448.805 77.5457Z" fill="white"/>
<path d="M530.133 79.9781H537.651C537.356 94.1303 545.944 101.206 563.413 101.206C568.425 101.206 572.958 99.9533 577.012 97.4472C581.877 94.4988 584.309 90.408 584.309 85.1746C584.309 78.3196 578.892 73.5654 568.056 70.9118L550.477 66.5998C538.609 63.7252 532.676 57.3861 532.676 47.5828C532.676 42.2757 534.445 37.5951 537.983 33.5411C542.774 28.0866 550.071 25.3594 559.875 25.3594C568.13 25.3594 574.948 27.4232 580.329 31.551C586.226 36.0472 589.137 42.1651 589.064 49.9046H581.545C581.324 44.1553 579.076 39.6222 574.801 36.3052C570.82 33.2831 565.882 31.7721 559.985 31.7721C554.236 31.7721 549.666 32.9146 546.275 35.1996C542.221 37.9268 540.194 42.0177 540.194 47.4722C540.194 53.5164 544.174 57.5336 552.135 59.5237L571.373 64.278C585.01 67.6686 591.828 74.5973 591.828 85.064C591.828 90.15 590.28 94.5726 587.184 98.3317C582.172 104.523 573.658 107.619 561.644 107.619C551.767 107.619 544.064 105.408 538.536 100.985C532.492 96.1942 529.691 89.1918 530.133 79.9781Z" fill="white"/>
<path d="M604.087 33.4306V27.0178H666.667V33.4306H639.136V105.961H631.618V33.4306H604.087Z" fill="white"/>
<path d="M682.882 105.961V27.0178H737.391V33.4306H690.401V61.9561H734.405V68.3688H690.401V99.5479H737.943V105.961H682.882Z" fill="white"/>
<path d="M764.785 33.4306V99.5479H780.817C792.242 99.5479 800.498 96.9681 805.584 91.8085C810.743 86.6488 813.323 78.2091 813.323 66.4893C813.323 54.7694 810.743 46.3297 805.584 41.1701C800.498 36.0104 792.242 33.4306 780.817 33.4306H764.785ZM757.267 105.961V27.0178H784.576C796.444 27.0178 805.436 30.3716 811.554 37.0792C817.746 43.713 820.841 53.5164 820.841 66.4893C820.841 79.4621 817.746 89.3023 811.554 96.0099C805.436 102.644 796.444 105.961 784.576 105.961H757.267Z" fill="white"/>
<path d="M884.748 105.961V27.0178H915.042L928.642 79.6464H928.863L942.462 27.0178H972.757V105.961H953.408V46.0349H953.187L936.602 105.961H920.902L904.317 46.0349H904.096V105.961H884.748Z" fill="white"/>
<path d="M992.855 66.4893C992.855 54.622 996.246 44.8924 1003.03 37.3003C1010.1 29.3397 1019.69 25.3594 1031.77 25.3594C1043.86 25.3594 1053.44 29.3397 1060.52 37.3003C1067.3 44.8924 1070.69 54.622 1070.69 66.4893C1070.69 78.3565 1067.3 88.0861 1060.52 95.6782C1053.44 103.639 1043.86 107.619 1031.77 107.619C1019.69 107.619 1010.1 103.639 1003.03 95.6782C996.246 88.0861 992.855 78.3565 992.855 66.4893ZM1013.42 66.4893C1013.42 73.0494 1014.82 78.4302 1017.62 82.6316C1020.86 87.4964 1025.58 89.9289 1031.77 89.9289C1037.97 89.9289 1042.68 87.4964 1045.93 82.6316C1048.73 78.4302 1050.13 73.0494 1050.13 66.4893C1050.13 59.9291 1048.73 54.5483 1045.93 50.3469C1042.68 45.4821 1037.97 43.0496 1031.77 43.0496C1025.58 43.0496 1020.86 45.4821 1017.62 50.3469C1014.82 54.5483 1013.42 59.9291 1013.42 66.4893Z" fill="white"/>
<path d="M1090.74 105.961V27.0178H1130.99C1138.72 27.0178 1145.06 28.7132 1150 32.1038C1155.75 36.0841 1158.63 41.7966 1158.63 49.2412C1158.63 53.6638 1157.59 57.6073 1155.53 61.0716C1153.32 64.8308 1150.22 67.4843 1146.24 69.0322V69.2534C1153.02 70.875 1156.86 77.1771 1157.74 88.1598C1157.96 91.1819 1158.22 94.204 1158.52 97.2261C1159.03 101.87 1159.88 104.781 1161.06 105.961H1140.71C1139.68 104.413 1138.91 100.211 1138.39 93.3564C1138.02 88.2704 1137.25 84.5849 1136.07 82.2999C1134.23 78.9093 1131.17 77.214 1126.89 77.214H1111.3V105.961H1090.74ZM1111.3 43.4919V61.2927H1128.55C1134.89 61.2927 1138.06 58.1969 1138.06 52.0053C1138.06 46.3297 1134.6 43.4919 1127.67 43.4919H1111.3Z" fill="white"/>
<path d="M1179.38 105.961V27.0178H1242.29V43.4919H1199.94V57.3124H1238.64V73.2337H1199.94V88.2704H1243.39V105.961H1179.38Z" fill="white"/>
<path d="M1468.32 27.0178L1442.78 105.961H1419.12L1394.24 27.0178H1415.69L1431.17 85.7274H1431.39L1446.87 27.0178H1468.32Z" fill="white"/>
<path d="M1483.07 105.961V27.0178H1545.98V43.4919H1503.63V57.3124H1542.33V73.2337H1503.63V88.2704H1547.09V105.961H1483.07Z" fill="white"/>
<path d="M1567.6 105.961V27.0178H1607.85C1615.59 27.0178 1621.93 28.7132 1626.87 32.1038C1632.62 36.0841 1635.49 41.7966 1635.49 49.2412C1635.49 53.6638 1634.46 57.6073 1632.39 61.0716C1630.18 64.8308 1627.09 67.4843 1623.11 69.0322V69.2534C1629.89 70.875 1633.72 77.1771 1634.61 88.1598C1634.83 91.1819 1635.09 94.204 1635.38 97.2261C1635.9 101.87 1636.74 104.781 1637.92 105.961H1617.58C1616.55 104.413 1615.77 100.211 1615.26 93.3564C1614.89 88.2704 1614.11 84.5849 1612.94 82.2999C1611.09 78.9093 1608.03 77.214 1603.76 77.214H1588.17V105.961H1567.6ZM1588.17 43.4919V61.2927H1605.42C1611.76 61.2927 1614.93 58.1969 1614.93 52.0053C1614.93 46.3297 1611.46 43.4919 1604.53 43.4919H1588.17Z" fill="white"/>
<path d="M1708.36 33.4306V99.5479H1724.4C1735.82 99.5479 1744.08 96.9681 1749.16 91.8085C1754.32 86.6488 1756.9 78.2091 1756.9 66.4893C1756.9 54.7694 1754.32 46.3297 1749.16 41.1701C1744.08 36.0104 1735.82 33.4306 1724.4 33.4306H1708.36ZM1700.85 105.961V27.0178H1728.16C1740.02 27.0178 1749.02 30.3716 1755.13 37.0792C1761.32 43.713 1764.42 53.5164 1764.42 66.4893C1764.42 79.4621 1761.32 89.3023 1755.13 96.0099C1749.02 102.644 1740.02 105.961 1728.16 105.961H1700.85Z" fill="white"/>
<path d="M1785.38 105.961V27.0178H1839.89V33.4306H1792.9V61.9561H1836.9V68.3688H1792.9V99.5479H1840.44V105.961H1785.38Z" fill="white"/>
<path d="M1855.78 79.9781H1863.3C1863.01 94.1303 1871.59 101.206 1889.06 101.206C1894.08 101.206 1898.61 99.9533 1902.66 97.4472C1907.53 94.4988 1909.96 90.408 1909.96 85.1746C1909.96 78.3196 1904.54 73.5654 1893.71 70.9118L1876.13 66.5998C1864.26 63.7252 1858.33 57.3861 1858.33 47.5828C1858.33 42.2757 1860.1 37.5951 1863.63 33.5411C1868.43 28.0866 1875.72 25.3594 1885.53 25.3594C1893.78 25.3594 1900.6 27.4232 1905.98 31.551C1911.88 36.0472 1914.79 42.1651 1914.71 49.9046H1907.2C1906.98 44.1553 1904.73 39.6222 1900.45 36.3052C1896.47 33.2831 1891.53 31.7721 1885.64 31.7721C1879.89 31.7721 1875.32 32.9146 1871.93 35.1996C1867.87 37.9268 1865.85 42.0177 1865.85 47.4722C1865.85 53.5164 1869.83 57.5336 1877.79 59.5237L1897.02 64.278C1910.66 67.6686 1917.48 74.5973 1917.48 85.064C1917.48 90.15 1915.93 94.5726 1912.84 98.3317C1907.82 104.523 1899.31 107.619 1887.3 107.619C1877.42 107.619 1869.72 105.408 1864.19 100.985C1858.14 96.1942 1855.34 89.1918 1855.78 79.9781Z" fill="white"/>
<path d="M1938.81 105.961V27.0178H1946.32V105.961H1938.81Z" fill="white"/>
<path d="M2039.05 65.8259V105.961H2033.63L2032.64 91.5873H2032.42C2027.41 102.275 2018.3 107.619 2005.11 107.619C1993.24 107.619 1983.92 103.455 1977.14 95.1254C1970.94 87.5333 1967.85 77.9879 1967.85 66.4893C1967.85 54.9906 1970.94 45.4452 1977.14 37.8531C1983.92 29.524 1993.24 25.3594 2005.11 25.3594C2013.66 25.3594 2020.88 27.5707 2026.78 31.9932C2032.9 36.6369 2036.66 43.1602 2038.06 51.5631H2030.54C2030.02 46.5508 2027.55 42.1283 2023.13 38.2954C2018.19 33.9465 2012.18 31.7721 2005.11 31.7721C1995.3 31.7721 1987.75 35.3839 1982.44 42.6074C1977.72 49.0201 1975.37 56.9807 1975.37 66.4893C1975.37 75.9978 1977.72 83.9215 1982.44 90.2606C1987.75 97.5578 1995.3 101.206 2005.11 101.206C2013.66 101.206 2020.44 98.4792 2025.45 93.0247C2030.24 87.7176 2032.56 80.7889 2032.42 72.2386H2005.55V65.8259H2039.05Z" fill="white"/>
<path d="M2062.29 105.961V27.0178H2070.7L2116.69 93.7986H2116.91V27.0178H2124.43V105.961H2116.03L2070.03 39.1799H2069.81V105.961H2062.29Z" fill="white"/>
<path d="M2149.1 105.961V27.0178H2203.61V33.4306H2156.62V61.9561H2200.62V68.3688H2156.62V99.5479H2204.16V105.961H2149.1Z" fill="white"/>
<path d="M2223.48 105.961V27.0178H2259.64C2266.64 27.0178 2272.28 28.6763 2276.55 31.9932C2281.27 35.605 2283.63 40.8015 2283.63 47.5828C2283.63 52.7424 2282.34 57.0913 2279.76 60.6293C2277.03 64.3885 2273.2 66.7472 2268.26 67.7055V67.9266C2276.81 69.0322 2281.42 74.9658 2282.08 85.7274C2282.45 92.0664 2282.67 95.6045 2282.74 96.3416C2283.33 101.059 2284.33 104.265 2285.73 105.961H2277.44C2276.41 104.339 2275.71 100.248 2275.34 93.688C2274.89 86.2434 2273.97 81.0837 2272.57 78.2091C2270.21 73.3442 2265.86 70.9118 2259.53 70.9118H2231V105.961H2223.48ZM2231 33.4306V64.4991H2259.08C2263.87 64.4991 2267.89 63.0986 2271.14 60.2977C2274.45 57.4967 2276.11 53.7744 2276.11 49.1307C2276.11 44.1921 2274.64 40.3592 2271.69 37.632C2268.81 34.831 2264.61 33.4306 2259.08 33.4306H2231Z" fill="white"/>
<path d="M2342.26 107.619H2336.29L2370.35 25.3594H2375.98L2342.26 107.619Z" fill="white"/>
<path d="M2438.49 33.4306V99.5479H2454.52C2465.95 99.5479 2474.2 96.9681 2479.29 91.8085C2484.45 86.6488 2487.03 78.2091 2487.03 66.4893C2487.03 54.7694 2484.45 46.3297 2479.29 41.1701C2474.2 36.0104 2465.95 33.4306 2454.52 33.4306H2438.49ZM2430.97 105.961V27.0178H2458.28C2470.15 27.0178 2479.14 30.3716 2485.26 37.0792C2491.45 43.713 2494.55 53.5164 2494.55 66.4893C2494.55 79.4621 2491.45 89.3023 2485.26 96.0099C2479.14 102.644 2470.15 105.961 2458.28 105.961H2430.97Z" fill="white"/>
<path d="M2515.51 105.961V27.0178H2570.01V33.4306H2523.02V61.9561H2567.03V68.3688H2523.02V99.5479H2570.57V105.961H2515.51Z" fill="white"/>
<path d="M2610.45 105.961L2581.16 27.0178H2589.23L2614.88 97.6684H2615.1L2640.53 27.0178H2648.49L2619.19 105.961H2610.45Z" fill="white"/>
<path d="M2664.27 105.961V27.0178H2718.78V33.4306H2671.79V61.9561H2715.8V68.3688H2671.79V99.5479H2719.34V105.961H2664.27Z" fill="white"/>
<path d="M2738.66 105.961V27.0178H2746.18V99.5479H2790.4V105.961H2738.66Z" fill="white"/>
<path d="M2802.69 66.4893C2802.69 54.9906 2805.78 45.4452 2811.98 37.8531C2818.76 29.524 2828.08 25.3594 2839.95 25.3594C2851.74 25.3594 2861.03 29.524 2867.81 37.8531C2874 45.4452 2877.1 54.9906 2877.1 66.4893C2877.1 77.9879 2874 87.5333 2867.81 95.1254C2861.03 103.455 2851.74 107.619 2839.95 107.619C2828.08 107.619 2818.76 103.455 2811.98 95.1254C2805.78 87.5333 2802.69 77.9879 2802.69 66.4893ZM2810.21 66.4893C2810.21 75.9978 2812.56 83.9215 2817.28 90.2606C2822.59 97.5578 2830.14 101.206 2839.95 101.206C2849.68 101.206 2857.23 97.5578 2862.61 90.2606C2867.26 83.9215 2869.58 75.9978 2869.58 66.4893C2869.58 56.9807 2867.26 49.0201 2862.61 42.6074C2857.23 35.3839 2849.68 31.7721 2839.95 31.7721C2830.14 31.7721 2822.59 35.3839 2817.28 42.6074C2812.56 49.0201 2810.21 56.9807 2810.21 66.4893Z" fill="white"/>
<path d="M2897.69 105.961V27.0178H2932.73C2939.88 27.0178 2945.56 29.008 2949.76 32.9883C2954.04 36.9686 2956.17 42.4968 2956.17 49.5729C2956.17 56.649 2954.04 62.1772 2949.76 66.1576C2945.56 70.1379 2939.88 72.128 2932.73 72.128H2905.2V105.961H2897.69ZM2905.2 33.4306V65.7153H2931.08C2936.46 65.7153 2940.73 64.3517 2943.9 61.6244C2947.07 58.8235 2948.66 54.8063 2948.66 49.5729C2948.66 44.3396 2947.03 40.2855 2943.79 37.4109C2940.7 34.7573 2936.46 33.4306 2931.08 33.4306H2905.2Z" fill="white"/>
<path d="M2976.17 105.961V27.0178H3030.68V33.4306H2983.69V61.9561H3027.7V68.3688H2983.69V99.5479H3031.23V105.961H2976.17Z" fill="white"/>
<path d="M3050.56 105.961V27.0178H3086.71C3093.71 27.0178 3099.35 28.6763 3103.63 31.9932C3108.35 35.605 3110.71 40.8015 3110.71 47.5828C3110.71 52.7424 3109.42 57.0913 3106.84 60.6293C3104.11 64.3885 3100.28 66.7472 3095.34 67.7055V67.9266C3103.89 69.0322 3108.49 74.9658 3109.16 85.7274C3109.53 92.0664 3109.75 95.6045 3109.82 96.3416C3110.41 101.059 3111.41 104.265 3112.81 105.961H3104.51C3103.48 104.339 3102.78 100.248 3102.41 93.688C3101.97 86.2434 3101.05 81.0837 3099.65 78.2091C3097.29 73.3442 3092.94 70.9118 3086.6 70.9118H3058.08V105.961H3050.56ZM3058.08 33.4306V64.4991H3086.16C3090.95 64.4991 3094.97 63.0986 3098.21 60.2977C3101.53 57.4967 3103.19 53.7744 3103.19 49.1307C3103.19 44.1921 3101.71 40.3592 3098.76 37.632C3095.89 34.831 3091.69 33.4306 3086.16 33.4306H3058.08Z" fill="white"/>
<g clip-path="url(#clip0_3_694)">
<path d="M1337.57 24.1906C1338.64 24.1906 1339.67 24.6152 1340.42 25.3712C1341.18 26.1272 1341.6 27.1525 1341.6 28.2215V44.3455C1341.6 45.4146 1341.18 46.4399 1340.42 47.1958C1339.67 47.9518 1338.64 48.3765 1337.57 48.3765C1336.5 48.3765 1335.48 47.9518 1334.72 47.1958C1333.97 46.4399 1333.54 45.4146 1333.54 44.3455V28.2215C1333.54 27.1525 1333.97 26.1272 1334.72 25.3712C1335.48 24.6152 1336.5 24.1906 1337.57 24.1906ZM1369.82 88.6863C1369.82 97.239 1366.42 105.441 1360.38 111.489C1354.33 117.537 1346.13 120.934 1337.57 120.934C1329.02 120.934 1320.82 117.537 1314.77 111.489C1308.72 105.441 1305.32 97.239 1305.32 88.6863V40.3145C1305.32 31.7618 1308.72 23.5595 1314.77 17.5118C1320.82 11.4641 1329.02 8.06661 1337.57 8.06661C1346.13 8.06661 1354.33 11.4641 1360.38 17.5118C1366.42 23.5595 1369.82 31.7618 1369.82 40.3145V88.6863ZM1337.57 0.00463867C1326.88 0.00463867 1316.63 4.25156 1309.07 11.8111C1301.51 19.3707 1297.26 29.6237 1297.26 40.3145V88.6863C1297.26 99.3772 1301.51 109.63 1309.07 117.19C1316.63 124.749 1326.88 128.996 1337.57 128.996C1348.26 128.996 1358.52 124.749 1366.08 117.19C1373.64 109.63 1377.88 99.3772 1377.88 88.6863V40.3145C1377.88 29.6237 1373.64 19.3707 1366.08 11.8111C1358.52 4.25156 1348.26 0.00463867 1337.57 0.00463867V0.00463867Z" fill="white"/>
</g>
<g clip-path="url(#clip1_3_694)">
<path d="M6.75 275.261H144.25V409.011H6.75V275.261Z" fill="url(#paint0_radial_3_694)"/>
<path d="M6.74993 275.26H144.25V409.01H6.74993V275.26ZM0.5 415.261H150.5V269.01H0.5V415.261ZM95.3753 329.76C94.4377 329.323 93.1876 329.135 91.6875 329.135C83.6251 329.135 78.0001 335.323 78.0001 345.635C78.0001 357.385 83.7501 362.135 90.9379 362.135C92.5002 362.135 94.1252 361.948 95.3753 361.385V329.76ZM92.0625 319.573C93.375 319.573 94.1252 319.573 95.375 319.698V303.073C95.375 302.635 95.6875 302.448 95.9997 302.448H106.125C106.625 302.448 106.75 302.635 106.75 302.948V361.385C106.75 363.135 106.75 365.323 107.062 367.698C107.062 368.135 106.937 368.198 106.5 368.448C101.125 371.01 95.4375 372.135 90.125 372.135C76.3125 372.135 66.4373 363.573 66.4373 346.135C66.3751 331.198 76.25 319.573 92.0625 319.573ZM55.3753 370.385C55.3753 371.01 55.2503 371.198 54.5626 371.198H44.9377C44.3127 371.198 44.125 370.885 44.125 370.385V303.26C44.125 302.635 44.4375 302.447 44.9377 302.447H54.6251C55.1251 302.447 55.3753 302.635 55.3753 303.198V370.385Z" fill="#FF408C"/>
</g>
<g clip-path="url(#clip2_3_694)">
<path d="M325.505 416.996C339.302 416.996 350.5 405.946 350.5 392.33V367.663H325.505C311.708 367.663 300.51 378.714 300.51 392.33C300.51 405.946 311.708 416.996 325.505 416.996Z" fill="#0ACF83"/>
<path d="M300.51 342.996C300.51 329.38 311.708 318.329 325.505 318.329H350.5V367.662H325.505C311.708 367.662 300.51 356.612 300.51 342.996Z" fill="#A259FF"/>
<path d="M300.512 293.663C300.512 280.047 311.709 268.996 325.507 268.996H350.502V318.329H325.507C311.709 318.329 300.512 307.279 300.512 293.663Z" fill="#F24E1E"/>
<path d="M350.5 268.996H375.495C389.292 268.996 400.49 280.047 400.49 293.663C400.49 307.279 389.292 318.329 375.495 318.329H350.5V268.996Z" fill="#FF7262"/>
<path d="M400.49 342.996C400.49 356.612 389.292 367.662 375.495 367.662C361.698 367.662 350.5 356.612 350.5 342.996C350.5 329.38 361.698 318.329 375.495 318.329C389.292 318.329 400.49 329.38 400.49 342.996Z" fill="#1ABCFE"/>
</g>
<g clip-path="url(#clip3_3_694)">
<path d="M673.938 415.246H577.062C562.374 415.246 550.5 403.372 550.5 388.684V295.558C550.5 280.87 562.374 268.996 577.062 268.996H673.938C688.626 268.996 700.5 280.87 700.5 295.558V388.684C700.5 403.372 688.626 415.246 673.938 415.246Z" fill="#FF26BE"/>
<path d="M671.562 408.994H579.438C566.94 408.994 556.752 398.806 556.752 386.308V297.934C556.752 285.436 566.94 275.248 579.438 275.248H671.502C684.066 275.248 694.188 285.436 694.188 297.934V386.248C694.248 398.806 684.06 408.994 671.562 408.994Z" fill="#2E001F"/>
<path d="M609.81 337.432L627.312 371.056C627.624 371.554 627.438 372.058 626.934 372.058H616.056C615.366 372.058 615.054 371.872 614.742 371.248C610.74 362.998 606.678 354.748 602.49 345.874H602.364C598.614 354.25 594.486 363.064 590.49 371.314C590.178 371.812 589.866 372.004 589.362 372.004H579.06C578.436 372.004 578.37 371.506 578.688 371.128L595.812 338.5L579.252 305.5C578.874 305.002 579.252 304.624 579.624 304.624H590.376C591 304.624 591.252 304.75 591.498 305.314C595.434 313.564 599.436 322.066 603.186 330.376H603.312C606.936 322.126 610.938 313.564 614.814 305.374C615.126 304.876 615.312 304.564 615.942 304.564H626.004C626.502 304.564 626.694 304.942 626.382 305.44L609.81 337.432ZM630.378 347.62C630.378 333.058 640.068 321.682 655.44 321.682C656.754 321.682 657.438 321.682 658.692 321.808V305.248C658.692 304.87 659.004 304.624 659.316 304.624H669.192C669.69 304.624 669.816 304.81 669.816 305.122V362.5C669.816 364.186 669.816 366.31 670.128 368.626C670.128 369.004 670.002 369.124 669.63 369.316C664.38 371.818 658.878 372.94 653.628 372.94C640.062 372.994 630.372 364.624 630.378 347.62ZM658.686 331.624C657.81 331.246 656.562 331 655.062 331C647.184 331 641.688 337.06 641.688 347.128C641.688 358.63 647.316 363.256 654.378 363.256C655.878 363.256 657.504 363.07 658.692 362.566V331.624H658.686Z" fill="#FFD9F2"/>
</g>
<g clip-path="url(#clip4_3_694)">
<path d="M877.062 269.009H973.938C988.625 269.009 1000.5 280.884 1000.5 295.572V388.697C1000.5 403.384 988.625 415.259 973.938 415.259H877.062C862.375 415.259 850.5 403.384 850.5 388.697V295.572C850.5 280.884 862.375 269.009 877.062 269.009Z" fill="#001E36"/>
<path d="M884.25 371.573V307.26C884.25 306.823 884.438 306.573 884.875 306.573C885.938 306.573 886.937 306.573 888.375 306.51C889.875 306.448 891.437 306.448 893.125 306.385C894.812 306.323 896.625 306.323 898.563 306.26C900.5 306.198 902.375 306.198 904.25 306.198C909.375 306.198 913.625 306.823 917.125 308.135C920.25 309.198 923.125 310.948 925.5 313.261C927.5 315.261 929.063 317.698 930.063 320.385C931 323.01 931.5 325.698 931.5 328.51C931.5 333.885 930.25 338.323 927.75 341.823C925.25 345.323 921.75 347.948 917.688 349.448C913.438 351.011 908.75 351.573 903.625 351.573C902.125 351.573 901.125 351.573 900.5 351.511C899.875 351.448 899 351.448 897.812 351.448V371.511C897.875 371.948 897.562 372.323 897.125 372.385H885C884.5 372.385 884.25 372.136 884.25 371.573ZM897.875 318.635V339.636C898.75 339.698 899.562 339.76 900.312 339.76H903.625C906.063 339.76 908.5 339.386 910.813 338.636C912.813 338.073 914.562 336.885 915.938 335.323C917.25 333.76 917.875 331.636 917.875 328.886C917.938 326.948 917.438 325.01 916.438 323.323C915.375 321.698 913.875 320.448 912.063 319.76C909.75 318.823 907.25 318.448 904.688 318.51C903.062 318.51 901.625 318.511 900.438 318.573C899.188 318.511 898.313 318.573 897.875 318.635ZM970.5 335.823C968.625 334.823 966.625 334.135 964.5 333.698C962.188 333.198 959.875 332.885 957.5 332.885C956.25 332.823 954.938 333.011 953.75 333.323C952.938 333.511 952.25 333.948 951.813 334.573C951.5 335.073 951.313 335.698 951.313 336.26C951.313 336.823 951.563 337.385 951.938 337.885C952.5 338.573 953.25 339.136 954.063 339.573C955.5 340.323 957 341.01 958.5 341.635C961.875 342.76 965.125 344.323 968.125 346.198C970.188 347.511 971.875 349.261 973.063 351.386C974.063 353.386 974.563 355.573 974.5 357.823C974.563 360.761 973.688 363.698 972.063 366.135C970.313 368.636 967.875 370.573 965.063 371.698C962 373.011 958.25 373.698 953.75 373.698C950.875 373.698 948.063 373.448 945.25 372.886C943.063 372.511 940.875 371.823 938.875 370.886C938.438 370.636 938.125 370.198 938.188 369.698V358.823C938.188 358.636 938.25 358.386 938.438 358.261C938.625 358.136 938.813 358.198 939 358.323C941.438 359.76 944 360.761 946.75 361.386C949.125 362.011 951.625 362.323 954.125 362.323C956.5 362.323 958.188 362.01 959.313 361.448C960.313 361.01 961 359.948 961 358.823C961 357.948 960.5 357.136 959.5 356.323C958.5 355.511 956.438 354.573 953.375 353.386C950.188 352.261 947.25 350.761 944.5 348.886C942.562 347.511 940.938 345.698 939.75 343.573C938.75 341.573 938.25 339.386 938.313 337.198C938.313 334.51 939.062 331.948 940.438 329.635C942 327.135 944.312 325.136 947 323.886C949.938 322.386 953.625 321.698 958.063 321.698C960.625 321.698 963.25 321.885 965.813 322.26C967.688 322.51 969.5 323.01 971.188 323.698C971.438 323.76 971.688 324.01 971.813 324.26C971.875 324.51 971.938 324.76 971.938 325.01V335.198C971.938 335.448 971.813 335.698 971.625 335.823C971.063 335.948 970.75 335.948 970.5 335.823Z" fill="#31A8FF"/>
</g>
<g clip-path="url(#clip5_3_694)">
<path d="M1156.75 275.261H1294.25V409.011H1156.75V275.261Z" fill="url(#paint1_radial_3_694)"/>
<path d="M1156.75 275.261H1294.25V409.011H1156.75V275.261ZM1150.5 415.261H1300.5V269.011H1150.5V415.261ZM1248.75 321.136C1248.75 320.636 1248.94 320.386 1249.5 320.386H1259.31C1259.81 320.386 1260.06 320.573 1260.06 321.136V370.448C1260.06 370.948 1259.94 371.198 1259.31 371.198H1249.63C1249 371.198 1248.81 370.886 1248.81 370.386V321.136H1248.75ZM1248.06 306.948C1248.06 302.948 1250.87 300.573 1254.44 300.573C1258.25 300.573 1260.81 303.136 1260.81 306.948C1260.81 311.073 1258.13 313.323 1254.31 313.323C1250.69 313.323 1248.06 311.073 1248.06 306.948ZM1219.94 341.698C1218.19 334.761 1214.06 319.636 1212.5 312.323H1212.37C1211.06 319.636 1207.75 332.011 1205.13 341.698H1219.94ZM1202.56 351.823L1197.62 370.573C1197.5 371.073 1197.31 371.198 1196.69 371.198H1187.5C1186.88 371.198 1186.75 371.011 1186.88 370.261L1204.63 308.136C1204.94 307.011 1205.12 306.011 1205.25 302.948C1205.25 302.511 1205.44 302.323 1205.75 302.323H1218.87C1219.31 302.323 1219.5 302.448 1219.63 302.948L1239.5 370.386C1239.62 370.885 1239.5 371.198 1239 371.198H1228.62C1228.12 371.198 1227.81 371.073 1227.69 370.636L1222.56 351.823H1202.56Z" fill="#FF7F18"/>
</g>
<path fill-rule="evenodd" clip-rule="evenodd" d="M1537.11 384.629C1536.61 383.776 1535.86 383.099 1534.96 382.693C1534.06 382.287 1533.05 382.172 1532.08 382.365C1529.76 382.806 1527.41 383.027 1525.05 383.027C1503.61 383.027 1486.35 365.144 1487.34 343.473C1488.23 324.121 1503.93 308.415 1523.26 307.525C1544.92 306.527 1562.79 323.804 1562.79 345.254C1562.79 354.542 1559.44 363.046 1553.89 369.623C1553.25 370.366 1552.86 371.286 1552.77 372.258C1552.68 373.23 1552.89 374.207 1553.38 375.054L1564.16 393.733C1565.97 396.881 1570.51 396.881 1572.33 393.733L1597.82 349.558C1598.64 348.123 1599.08 346.495 1599.08 344.838C1599.08 343.18 1598.64 341.552 1597.82 340.117L1565.52 284.136C1564.69 282.7 1563.5 281.508 1562.07 280.679C1560.63 279.849 1559 279.413 1557.35 279.413H1492.75C1491.09 279.413 1489.47 279.849 1488.03 280.678C1486.6 281.507 1485.41 282.698 1484.58 284.133L1452.28 340.113C1451.45 341.548 1451.02 343.177 1451.02 344.834C1451.02 346.492 1451.45 348.121 1452.28 349.556L1484.58 405.538C1485.41 406.973 1486.6 408.164 1488.03 408.993C1489.47 409.822 1491.09 410.258 1492.75 410.258H1543.72C1547.36 410.258 1549.63 406.325 1547.81 403.175L1537.11 384.629Z" fill="#6666FF"/>
<path fill-rule="evenodd" clip-rule="evenodd" d="M1525.05 326.131C1514.62 326.131 1506.17 334.586 1506.17 345.017C1506.17 355.448 1514.62 363.902 1525.05 363.902C1535.47 363.902 1543.92 355.448 1543.92 345.017C1543.92 334.586 1535.47 326.131 1525.05 326.131Z" fill="#6666FF"/>
<g clip-path="url(#clip6_3_694)">
<path d="M1866.83 268.996H1784.17C1765.57 268.996 1750.5 284.07 1750.5 302.664V385.328C1750.5 403.922 1765.57 418.996 1784.17 418.996H1866.83C1885.43 418.996 1900.5 403.922 1900.5 385.328V302.664C1900.5 284.07 1885.43 268.996 1866.83 268.996Z" fill="#81B441"/>
<path fill-rule="evenodd" clip-rule="evenodd" d="M1807.65 352.543C1807.65 350.88 1807.65 349.165 1808.07 347.347C1809.53 334.439 1815.96 322.608 1825.99 314.354C1828.01 312.231 1830.42 310.528 1833.1 309.342C1835.77 308.156 1838.65 307.511 1841.58 307.444C1845.27 306.872 1848.59 306.769 1849.89 309.574C1851.49 312.717 1852.88 315.962 1854.05 319.29C1868.81 366.883 1838.1 387.302 1814.87 378.573C1809.81 376.936 1805.24 374.029 1801.62 370.128C1798 366.227 1795.43 361.463 1794.17 356.29C1792.91 351.117 1793 345.707 1794.42 340.576C1795.84 335.445 1798.56 330.764 1802.3 326.98C1803.34 325.889 1804.33 327.655 1804.22 328.435C1803.86 331.032 1799.75 345.632 1807.39 352.75L1807.65 352.543Z" fill="white"/>
</g>
<g clip-path="url(#clip7_3_694)">
<path fill-rule="evenodd" clip-rule="evenodd" d="M2050.5 343.996C2050.5 373.68 2067.75 399.337 2092.77 411.49L2056.99 313.471C2052.71 323.076 2050.49 333.477 2050.5 343.996ZM2176.13 340.212C2176.13 330.94 2172.8 324.524 2169.95 319.53C2166.14 313.343 2162.58 308.115 2162.58 301.937C2162.58 295.04 2167.8 288.624 2175.17 288.624C2175.51 288.624 2175.82 288.665 2176.14 288.687C2162.33 276 2144.25 268.971 2125.5 268.996C2099.29 268.996 2076.25 282.44 2062.83 302.799C2064.44 302.853 2066.05 302.882 2067.66 302.887C2075.51 302.887 2087.65 301.937 2087.65 301.937C2091.69 301.696 2092.17 307.64 2088.13 308.115C2088.13 308.115 2084.07 308.593 2079.55 308.833L2106.86 390.068L2123.27 340.843L2111.59 308.83C2108.96 308.667 2106.34 308.428 2103.72 308.112C2099.68 307.874 2100.15 301.696 2104.2 301.937C2104.2 301.937 2116.58 302.887 2123.95 302.887C2131.8 302.887 2143.94 301.937 2143.94 301.937C2147.98 301.696 2148.46 307.64 2144.42 308.115C2144.42 308.115 2140.35 308.593 2135.83 308.833L2162.94 389.449L2170.43 364.455C2173.66 354.077 2176.13 346.627 2176.13 340.212ZM2191.31 308.012C2191.63 310.402 2191.82 312.962 2191.82 315.724C2191.82 323.33 2190.39 331.887 2186.11 342.59L2163.21 408.821C2185.5 395.821 2200.5 371.662 2200.5 343.996C2200.5 330.955 2197.17 318.696 2191.31 308.012ZM2126.81 350.558L2104.31 415.946C2111.03 417.924 2118.13 419.002 2125.49 419.002C2134.23 419.002 2142.61 417.493 2150.4 414.752C2150.2 414.423 2150.02 414.079 2149.87 413.721L2126.81 350.558Z" fill="white"/>
</g>
<path fill-rule="evenodd" clip-rule="evenodd" d="M2383.61 273.535L2425.76 269.286L2467.87 273.862L2500.31 317.372L2425.24 403.328L2350.83 316.792L2383.61 273.535Z" fill="#FDB300"/>
<path fill-rule="evenodd" clip-rule="evenodd" d="M2381.11 317.431L2425.24 403.328L2350.83 317.314L2381.11 317.431Z" fill="#EA6C00"/>
<path fill-rule="evenodd" clip-rule="evenodd" d="M2470.05 317.777L2425.25 403.328L2500.32 317.895L2470.05 317.777Z" fill="#EA6C00"/>
<path fill-rule="evenodd" clip-rule="evenodd" d="M2380.43 317.429L2469.18 317.774L2424.47 403.325L2380.43 317.429Z" fill="#FDAD00"/>
<path fill-rule="evenodd" clip-rule="evenodd" d="M2424.22 269.279L2382.89 273.579L2380.43 317.428L2424.22 269.279Z" fill="#FDD231"/>
<path fill-rule="evenodd" clip-rule="evenodd" d="M2425.75 269.285L2467.04 273.905L2469.16 317.772L2425.75 269.285Z" fill="#FDD231"/>
<path fill-rule="evenodd" clip-rule="evenodd" d="M2500.32 317.894L2467.79 274.124L2469.96 317.776L2500.32 317.894Z" fill="#FDAD00"/>
<path fill-rule="evenodd" clip-rule="evenodd" d="M2350.83 317.314L2383.7 273.798L2381.18 317.432L2350.83 317.314Z" fill="#FDAD00"/>
<path fill-rule="evenodd" clip-rule="evenodd" d="M2424.99 269.282L2380.43 317.428L2469.18 317.773L2424.99 269.282Z" fill="#FEEEB7"/>
<g clip-path="url(#clip8_3_694)">
<path d="M2725.5 418.996C2766.92 418.996 2800.5 385.417 2800.5 343.996C2800.5 302.574 2766.92 268.996 2725.5 268.996C2684.08 268.996 2650.5 302.574 2650.5 343.996C2650.5 385.417 2684.08 418.996 2725.5 418.996Z" fill="#4353FF"/>
<path d="M2747.53 335.09L2740.73 356.511C2740.73 354.871 2736.05 319.34 2736.05 319.34C2725.27 319.34 2719.55 326.98 2716.55 335.09L2708.25 356.558C2708.25 355.011 2707.08 335.277 2707.08 335.277C2706.68 331.005 2704.72 327.028 2701.59 324.099C2698.45 321.171 2694.35 319.494 2690.06 319.386L2698.88 373.199C2710.13 373.199 2716.22 365.558 2719.36 357.449L2726.39 339.168C2726.39 339.918 2731.08 373.199 2731.08 373.199C2735.68 373.193 2740.16 371.722 2743.87 369C2747.57 366.278 2750.32 362.445 2751.7 358.058L2767.64 319.34C2756.39 319.34 2750.48 326.98 2747.48 335.09H2747.53Z" fill="white"/>
</g>
<g clip-path="url(#clip9_3_694)">
<path d="M3093 268.996H2958C2953.93 268.996 2950.5 272.424 2950.5 276.496V411.496C2950.5 415.567 2953.93 418.996 2958 418.996H3093C3097.07 418.996 3100.5 415.567 3100.5 411.496V276.496C3100.5 272.424 3097.07 268.996 3093 268.996ZM3005.57 377.21H2992.29V310.781H3005.57V377.21ZM3058.93 377.21H3018.86V363.924H3058.93V377.21ZM3058.93 350.639H3018.86V337.353H3058.93V350.639ZM3058.93 324.067H3018.86V310.781H3058.93V324.067Z" fill="url(#paint2_linear_3_694)"/>
</g>
<g clip-path="url(#clip10_3_694)">
<path fill-rule="evenodd" clip-rule="evenodd" d="M3284.78 268.996H3366.22C3375.3 269.025 3384.01 272.645 3390.43 279.067C3396.85 285.489 3400.47 294.191 3400.5 303.273V384.719C3400.47 393.801 3396.85 402.502 3390.43 408.924C3384.01 415.346 3375.3 418.967 3366.22 418.996H3284.78C3275.7 418.967 3266.99 415.346 3260.57 408.924C3254.15 402.502 3250.53 393.801 3250.5 384.719V303.273C3250.53 294.191 3254.15 285.489 3260.57 279.067C3266.99 272.645 3275.7 269.025 3284.78 268.996V268.996Z" fill="#1C3A4E"/>
<path d="M3306.65 336.427L3286.29 316.054L3311.46 290.859L3336.62 316.042L3307.78 344.936L3307.64 344.789C3308.44 343.486 3308.77 341.954 3308.59 340.437C3308.41 338.921 3307.73 337.509 3306.65 336.427Z" fill="white"/>
<path d="M3364.73 343.788L3311.44 397.133L3286.27 371.95L3339.56 318.593L3364.73 343.788Z" fill="#55E5C5"/>
</g>
<defs>
<radialGradient id="paint0_radial_3_694" cx="0" cy="0" r="1" gradientUnits="userSpaceOnUse" gradientTransform="translate(52.0359 305.235) scale(104.5 101.175)">
<stop stop-color="#4B2B36" stop-opacity="0.98"/>
<stop offset="1" stop-color="#250012"/>
</radialGradient>
<radialGradient id="paint1_radial_3_694" cx="0" cy="0" r="1" gradientUnits="userSpaceOnUse" gradientTransform="translate(1202.04 305.234) scale(104.5 101.175)">
<stop stop-color="#423325" stop-opacity="0.98"/>
<stop offset="1" stop-color="#1C0A00"/>
</radialGradient>
<linearGradient id="paint2_linear_3_694" x1="3100.39" y1="268.846" x2="2950.39" y2="418.845" gradientUnits="userSpaceOnUse">
<stop stop-color="#ED345E"/>
<stop offset="1" stop-color="#382C74"/>
</linearGradient>
<clipPath id="clip0_3_694">
<rect width="128.992" height="128.992" fill="white" transform="translate(1273.08 0.00439453)"/>
</clipPath>
<clipPath id="clip1_3_694">
<rect width="150" height="146.28" fill="white" transform="translate(0.5 268.996)"/>
</clipPath>
<clipPath id="clip2_3_694">
<rect width="100" height="148" fill="white" transform="translate(300.5 268.996)"/>
</clipPath>
<clipPath id="clip3_3_694">
<rect width="150" height="146.25" fill="white" transform="translate(550.5 268.996)"/>
</clipPath>
<clipPath id="clip4_3_694">
<rect width="150" height="146.28" fill="white" transform="translate(850.5 268.996)"/>
</clipPath>
<clipPath id="clip5_3_694">
<rect width="150" height="146.28" fill="white" transform="translate(1150.5 268.996)"/>
</clipPath>
<clipPath id="clip6_3_694">
<rect width="150" height="150" fill="white" transform="translate(1750.5 268.996)"/>
</clipPath>
<clipPath id="clip7_3_694">
<rect width="150" height="150" fill="white" transform="translate(2050.5 268.996)"/>
</clipPath>
<clipPath id="clip8_3_694">
<rect width="150" height="150" fill="white" transform="translate(2650.5 268.996)"/>
</clipPath>
<clipPath id="clip9_3_694">
<rect width="150" height="150" fill="white" transform="translate(2950.5 268.996)"/>
</clipPath>
<clipPath id="clip10_3_694">
<rect width="150" height="150" fill="white" transform="translate(3250.5 268.996)"/>
</clipPath>
</defs>
</svg>
