<svg width="570" height="873" viewBox="0 0 570 873" fill="none" xmlns="http://www.w3.org/2000/svg">
<rect x="246.381" y="0.580078" width="76.8601" height="152.83" rx="38.43" fill="white"/>
<path fill-rule="evenodd" clip-rule="evenodd" d="M561.474 209.235C573.284 195.507 571.729 174.805 558.002 162.995C544.274 151.186 523.572 152.74 511.762 166.468L323.241 385.606V486.158L561.474 209.235ZM246.381 482.878C244.494 481.468 242.731 479.831 241.131 477.972L10.9271 210.381C-0.882539 196.653 0.672252 175.951 14.3999 164.142C28.1275 152.332 48.8296 153.887 60.6392 167.615L246.381 383.522V482.878Z" fill="white"/>
<path fill-rule="evenodd" clip-rule="evenodd" d="M0.304474 194.777V588.416C0.304474 745.337 127.935 872.547 284.856 872.547C441.777 872.547 569.407 745.337 569.407 588.416V194.777H507.639V588.416C507.639 711.105 407.783 810.78 284.856 810.78C161.929 810.78 62.0721 711.105 62.0721 588.416V194.777H0.304474Z" fill="white"/>
<path d="M0.304474 188.849C0.304474 170.192 15.4296 155.066 34.0874 155.066C52.7452 155.066 67.8703 170.192 67.8703 188.849V254.816H0.304474V188.849Z" fill="white"/>
<path d="M503.88 187.83C503.88 169.735 518.549 155.066 536.644 155.066C554.738 155.066 569.407 169.735 569.407 187.83V254.816H503.88V187.83Z" fill="white"/>
</svg>
